<svg width="92" height="103" viewBox="0 0 92 103" fill="none" xmlns="http://www.w3.org/2000/svg">
<path d="M1.44481 72.832H3.55681V77.408H5.33281L7.15681 74.112C7.40215 73.664 7.66881 73.3387 7.95681 73.136C8.24481 72.9333 8.60748 72.832 9.04481 72.832H9.95681V74.704H8.96481L7.57281 77.216C7.40215 77.5147 7.23148 77.7387 7.06081 77.888C6.90081 78.0267 6.70348 78.1333 6.46881 78.208V78.304C6.73548 78.3573 6.95948 78.464 7.14081 78.624C7.33281 78.7733 7.51948 79.008 7.70081 79.328L9.23681 82.128H10.2288V84H9.04481C8.63948 84 8.30348 83.9093 8.03681 83.728C7.77015 83.536 7.50348 83.2 7.23681 82.72L5.33281 79.248H3.55681V84H1.44481V72.832ZM15.1601 84.192C14.5627 84.192 14.0241 84.0907 13.5441 83.888C13.0747 83.6853 12.6694 83.392 12.3281 83.008C11.9974 82.624 11.7414 82.1653 11.5601 81.632C11.3787 81.088 11.2881 80.48 11.2881 79.808C11.2881 79.136 11.3787 78.5333 11.5601 78C11.7414 77.4667 11.9974 77.0133 12.3281 76.64C12.6694 76.256 13.0747 75.9627 13.5441 75.76C14.0241 75.5573 14.5627 75.456 15.1601 75.456C15.7574 75.456 16.2961 75.5573 16.7761 75.76C17.2561 75.9627 17.6614 76.256 17.9921 76.64C18.3334 77.0133 18.5947 77.4667 18.7761 78C18.9574 78.5333 19.0481 79.136 19.0481 79.808C19.0481 80.48 18.9574 81.088 18.7761 81.632C18.5947 82.1653 18.3334 82.624 17.9921 83.008C17.6614 83.392 17.2561 83.6853 16.7761 83.888C16.2961 84.0907 15.7574 84.192 15.1601 84.192ZM15.1601 82.544C15.7041 82.544 16.1307 82.3787 16.4401 82.048C16.7494 81.7173 16.9041 81.232 16.9041 80.592V79.04C16.9041 78.4107 16.7494 77.9307 16.4401 77.6C16.1307 77.2693 15.7041 77.104 15.1601 77.104C14.6267 77.104 14.2054 77.2693 13.8961 77.6C13.5867 77.9307 13.4321 78.4107 13.4321 79.04V80.592C13.4321 81.232 13.5867 81.7173 13.8961 82.048C14.2054 82.3787 14.6267 82.544 15.1601 82.544ZM24.1597 84.192C23.541 84.192 22.9917 84.0907 22.5117 83.888C22.0317 83.6853 21.6264 83.392 21.2957 83.008C20.9757 82.624 20.7304 82.1653 20.5597 81.632C20.389 81.088 20.3037 80.48 20.3037 79.808C20.3037 79.136 20.389 78.5333 20.5597 78C20.7304 77.4667 20.9757 77.0133 21.2957 76.64C21.6264 76.256 22.0317 75.9627 22.5117 75.76C22.9917 75.5573 23.541 75.456 24.1597 75.456C25.0024 75.456 25.6957 75.6427 26.2397 76.016C26.7944 76.3893 27.1944 76.9067 27.4397 77.568L25.7597 78.32C25.6637 77.968 25.4824 77.68 25.2157 77.456C24.9597 77.2213 24.6077 77.104 24.1597 77.104C23.5837 77.104 23.1517 77.2853 22.8637 77.648C22.5864 78.0107 22.4477 78.4853 22.4477 79.072V80.592C22.4477 81.1787 22.5864 81.6533 22.8637 82.016C23.1517 82.368 23.5837 82.544 24.1597 82.544C24.6504 82.544 25.029 82.4213 25.2957 82.176C25.5624 81.92 25.7704 81.6053 25.9197 81.232L27.4877 81.984C27.2104 82.72 26.789 83.2747 26.2237 83.648C25.6584 84.0107 24.9704 84.192 24.1597 84.192ZM32.3007 84.192C31.7034 84.192 31.1647 84.0907 30.6847 83.888C30.2154 83.6853 29.81 83.392 29.4687 83.008C29.138 82.624 28.882 82.1653 28.7007 81.632C28.5194 81.088 28.4287 80.48 28.4287 79.808C28.4287 79.136 28.5194 78.5333 28.7007 78C28.882 77.4667 29.138 77.0133 29.4687 76.64C29.81 76.256 30.2154 75.9627 30.6847 75.76C31.1647 75.5573 31.7034 75.456 32.3007 75.456C32.898 75.456 33.4367 75.5573 33.9167 75.76C34.3967 75.9627 34.802 76.256 35.1327 76.64C35.474 77.0133 35.7354 77.4667 35.9167 78C36.098 78.5333 36.1887 79.136 36.1887 79.808C36.1887 80.48 36.098 81.088 35.9167 81.632C35.7354 82.1653 35.474 82.624 35.1327 83.008C34.802 83.392 34.3967 83.6853 33.9167 83.888C33.4367 84.0907 32.898 84.192 32.3007 84.192ZM32.3007 82.544C32.8447 82.544 33.2714 82.3787 33.5807 82.048C33.89 81.7173 34.0447 81.232 34.0447 80.592V79.04C34.0447 78.4107 33.89 77.9307 33.5807 77.6C33.2714 77.2693 32.8447 77.104 32.3007 77.104C31.7674 77.104 31.346 77.2693 31.0367 77.6C30.7274 77.9307 30.5727 78.4107 30.5727 79.04V80.592C30.5727 81.232 30.7274 81.7173 31.0367 82.048C31.346 82.3787 31.7674 82.544 32.3007 82.544ZM38.0043 75.648H45.0763V84H43.0283V77.28H40.0523V84H38.0043V75.648ZM46.4658 82.368H47.5538C47.6605 82.208 47.7565 82.016 47.8418 81.792C47.9378 81.568 48.0178 81.296 48.0818 80.976C48.1458 80.6453 48.1938 80.256 48.2258 79.808C48.2685 79.3493 48.2898 78.816 48.2898 78.208V75.648H54.6418V84H52.5938V77.28H50.2418V78.304C50.2418 79.0613 50.2151 79.7227 50.1618 80.288C50.1085 80.8427 50.0285 81.3227 49.9218 81.728C49.8258 82.1333 49.7031 82.4747 49.5538 82.752C49.4151 83.0187 49.2605 83.2373 49.0898 83.408C48.8445 83.6533 48.5671 83.824 48.2578 83.92C47.9485 84.016 47.5698 84.064 47.1218 84.064H46.4658V82.368ZM60.3647 84.192C59.746 84.192 59.1914 84.0907 58.7007 83.888C58.2207 83.6747 57.81 83.3813 57.4687 83.008C57.138 82.624 56.882 82.1653 56.7007 81.632C56.5194 81.088 56.4287 80.48 56.4287 79.808C56.4287 79.1467 56.514 78.5493 56.6847 78.016C56.866 77.4827 57.122 77.0293 57.4527 76.656C57.7834 76.272 58.1887 75.9787 58.6687 75.776C59.1487 75.5627 59.6927 75.456 60.3007 75.456C60.9514 75.456 61.5167 75.568 61.9967 75.792C62.4767 76.016 62.8714 76.32 63.1807 76.704C63.49 77.088 63.7194 77.536 63.8687 78.048C64.0287 78.5493 64.1087 79.088 64.1087 79.664V80.336H58.5567V80.544C58.5567 81.152 58.7274 81.6427 59.0687 82.016C59.41 82.3787 59.9167 82.56 60.5887 82.56C61.1007 82.56 61.5167 82.4533 61.8367 82.24C62.1674 82.0267 62.4607 81.7547 62.7167 81.424L63.8207 82.656C63.4794 83.136 63.01 83.5147 62.4127 83.792C61.826 84.0587 61.1434 84.192 60.3647 84.192ZM60.3327 76.992C59.7887 76.992 59.3567 77.1733 59.0367 77.536C58.7167 77.8987 58.5567 78.368 58.5567 78.944V79.072H61.9807V78.928C61.9807 78.352 61.8367 77.888 61.5487 77.536C61.2714 77.1733 60.866 76.992 60.3327 76.992ZM70.5666 80.368H70.4866C70.2732 80.688 69.9852 80.9493 69.6226 81.152C69.2599 81.344 68.7959 81.44 68.2306 81.44C66.4279 81.44 65.5266 80.4853 65.5266 78.576V75.648H67.5746V78.464C67.5746 78.912 67.6866 79.2373 67.9106 79.44C68.1346 79.6427 68.4919 79.744 68.9826 79.744C69.4839 79.744 69.8732 79.664 70.1506 79.504C70.4279 79.344 70.5666 79.1253 70.5666 78.848V75.648H72.6146V84H70.5666V80.368ZM78.3647 84.192C77.746 84.192 77.1914 84.0907 76.7007 83.888C76.2207 83.6747 75.81 83.3813 75.4687 83.008C75.138 82.624 74.882 82.1653 74.7007 81.632C74.5194 81.088 74.4287 80.48 74.4287 79.808C74.4287 79.1467 74.514 78.5493 74.6847 78.016C74.866 77.4827 75.122 77.0293 75.4527 76.656C75.7834 76.272 76.1887 75.9787 76.6687 75.776C77.1487 75.5627 77.6927 75.456 78.3007 75.456C78.9514 75.456 79.5167 75.568 79.9967 75.792C80.4767 76.016 80.8714 76.32 81.1807 76.704C81.49 77.088 81.7194 77.536 81.8687 78.048C82.0287 78.5493 82.1087 79.088 82.1087 79.664V80.336H76.5567V80.544C76.5567 81.152 76.7274 81.6427 77.0687 82.016C77.41 82.3787 77.9167 82.56 78.5887 82.56C79.1007 82.56 79.5167 82.4533 79.8367 82.24C80.1674 82.0267 80.4607 81.7547 80.7167 81.424L81.8207 82.656C81.4794 83.136 81.01 83.5147 80.4127 83.792C79.826 84.0587 79.1434 84.192 78.3647 84.192ZM78.3327 76.992C77.7887 76.992 77.3567 77.1733 77.0367 77.536C76.7167 77.8987 76.5567 78.368 76.5567 78.944V79.072H79.9807V78.928C79.9807 78.352 79.8367 77.888 79.5487 77.536C79.2714 77.1733 78.866 76.992 78.3327 76.992ZM83.9106 75.648H88.5026C89.2492 75.648 89.8199 75.84 90.2146 76.224C90.6092 76.5973 90.8066 77.104 90.8066 77.744C90.8066 78.8 90.2306 79.408 89.0786 79.568V79.632C89.7612 79.696 90.2732 79.8933 90.6146 80.224C90.9559 80.5547 91.1266 80.9973 91.1266 81.552C91.1266 82.2773 90.9026 82.8693 90.4546 83.328C90.0066 83.776 89.3826 84 88.5826 84H83.9106V75.648ZM88.1666 82.512C88.4439 82.512 88.6572 82.4427 88.8066 82.304C88.9559 82.1547 89.0306 81.9467 89.0306 81.68V81.232C89.0306 80.9653 88.9559 80.7627 88.8066 80.624C88.6572 80.4747 88.4439 80.4 88.1666 80.4H85.9106V82.512H88.1666ZM87.9266 79.104C88.1719 79.104 88.3639 79.0347 88.5026 78.896C88.6519 78.7573 88.7266 78.5653 88.7266 78.32V77.92C88.7266 77.6747 88.6519 77.4827 88.5026 77.344C88.3639 77.2053 88.1719 77.136 87.9266 77.136H85.9106V79.104H87.9266ZM21.6381 101L20.7421 98.152H16.7741L15.8941 101H13.7501L17.4941 89.832H20.1181L23.8301 101H21.6381ZM18.7901 91.752H18.7101L17.2861 96.344H20.2301L18.7901 91.752ZM24.5283 99.368H25.6163C25.723 99.208 25.819 99.016 25.9043 98.792C26.0003 98.568 26.0803 98.296 26.1443 97.976C26.2083 97.6453 26.2563 97.256 26.2883 96.808C26.331 96.3493 26.3523 95.816 26.3523 95.208V92.648H32.7043V101H30.6563V94.28H28.3043V95.304C28.3043 96.0613 28.2776 96.7227 28.2243 97.288C28.171 97.8427 28.091 98.3227 27.9843 98.728C27.8883 99.1333 27.7656 99.4747 27.6163 99.752C27.4776 100.019 27.323 100.237 27.1523 100.408C26.907 100.653 26.6296 100.824 26.3203 100.92C26.011 101.016 25.6323 101.064 25.1843 101.064H24.5283V99.368ZM38.4272 101.192C37.8085 101.192 37.2539 101.091 36.7632 100.888C36.2832 100.675 35.8725 100.381 35.5312 100.008C35.2005 99.624 34.9445 99.1653 34.7632 98.632C34.5819 98.088 34.4912 97.48 34.4912 96.808C34.4912 96.1467 34.5765 95.5493 34.7472 95.016C34.9285 94.4827 35.1845 94.0293 35.5152 93.656C35.8459 93.272 36.2512 92.9787 36.7312 92.776C37.2112 92.5627 37.7552 92.456 38.3632 92.456C39.0139 92.456 39.5792 92.568 40.0592 92.792C40.5392 93.016 40.9339 93.32 41.2432 93.704C41.5525 94.088 41.7819 94.536 41.9312 95.048C42.0912 95.5493 42.1712 96.088 42.1712 96.664V97.336H36.6192V97.544C36.6192 98.152 36.7899 98.6427 37.1312 99.016C37.4725 99.3787 37.9792 99.56 38.6512 99.56C39.1632 99.56 39.5792 99.4533 39.8992 99.24C40.2299 99.0267 40.5232 98.7547 40.7792 98.424L41.8832 99.656C41.5419 100.136 41.0725 100.515 40.4752 100.792C39.8885 101.059 39.2059 101.192 38.4272 101.192ZM38.3952 93.992C37.8512 93.992 37.4192 94.1733 37.0992 94.536C36.7792 94.8987 36.6192 95.368 36.6192 95.944V96.072H40.0432V95.928C40.0432 95.352 39.8992 94.888 39.6112 94.536C39.3339 94.1733 38.9285 93.992 38.3952 93.992ZM43.9731 92.648H46.0211V95.928H47.3651L48.6291 93.736C48.8637 93.3307 49.1037 93.048 49.3491 92.888C49.5944 92.728 49.9197 92.648 50.3251 92.648H51.2371V94.28H50.3411L49.4611 95.816C49.3117 96.0933 49.1677 96.2907 49.0291 96.408C48.8904 96.5147 48.7251 96.5947 48.5331 96.648V96.728C48.7251 96.7707 48.8957 96.8453 49.0451 96.952C49.2051 97.0587 49.3597 97.2453 49.5091 97.512L50.5491 99.368H51.4291V101H50.3891C49.9837 101 49.6477 100.915 49.3811 100.744C49.1251 100.573 48.8797 100.28 48.6451 99.864L47.3651 97.544H46.0211V101H43.9731V92.648ZM56.3316 101.192C55.7129 101.192 55.1636 101.091 54.6836 100.888C54.2036 100.685 53.7982 100.392 53.4676 100.008C53.1476 99.624 52.9022 99.1653 52.7316 98.632C52.5609 98.088 52.4756 97.48 52.4756 96.808C52.4756 96.136 52.5609 95.5333 52.7316 95C52.9022 94.4667 53.1476 94.0133 53.4676 93.64C53.7982 93.256 54.2036 92.9627 54.6836 92.76C55.1636 92.5573 55.7129 92.456 56.3316 92.456C57.1742 92.456 57.8676 92.6427 58.4116 93.016C58.9662 93.3893 59.3662 93.9067 59.6116 94.568L57.9316 95.32C57.8356 94.968 57.6542 94.68 57.3876 94.456C57.1316 94.2213 56.7796 94.104 56.3316 94.104C55.7556 94.104 55.3236 94.2853 55.0356 94.648C54.7582 95.0107 54.6196 95.4853 54.6196 96.072V97.592C54.6196 98.1787 54.7582 98.6533 55.0356 99.016C55.3236 99.368 55.7556 99.544 56.3316 99.544C56.8222 99.544 57.2009 99.4213 57.4676 99.176C57.7342 98.92 57.9422 98.6053 58.0916 98.232L59.6596 98.984C59.3822 99.72 58.9609 100.275 58.3956 100.648C57.8302 101.011 57.1422 101.192 56.3316 101.192ZM64.5366 101.192C63.9179 101.192 63.3632 101.091 62.8726 100.888C62.3926 100.675 61.9819 100.381 61.6406 100.008C61.3099 99.624 61.0539 99.1653 60.8726 98.632C60.6912 98.088 60.6006 97.48 60.6006 96.808C60.6006 96.1467 60.6859 95.5493 60.8566 95.016C61.0379 94.4827 61.2939 94.0293 61.6246 93.656C61.9552 93.272 62.3606 92.9787 62.8406 92.776C63.3206 92.5627 63.8646 92.456 64.4726 92.456C65.1232 92.456 65.6886 92.568 66.1686 92.792C66.6486 93.016 67.0432 93.32 67.3526 93.704C67.6619 94.088 67.8912 94.536 68.0406 95.048C68.2006 95.5493 68.2806 96.088 68.2806 96.664V97.336H62.7286V97.544C62.7286 98.152 62.8992 98.6427 63.2406 99.016C63.5819 99.3787 64.0886 99.56 64.7606 99.56C65.2726 99.56 65.6886 99.4533 66.0086 99.24C66.3392 99.0267 66.6326 98.7547 66.8886 98.424L67.9926 99.656C67.6512 100.136 67.1819 100.515 66.5846 100.792C65.9979 101.059 65.3152 101.192 64.5366 101.192ZM64.5046 93.992C63.9606 93.992 63.5286 94.1733 63.2086 94.536C62.8886 94.8987 62.7286 95.368 62.7286 95.944V96.072H66.1526V95.928C66.1526 95.352 66.0086 94.888 65.7206 94.536C65.4432 94.1733 65.0379 93.992 64.5046 93.992ZM70.0824 92.648H72.0824V96.376L71.9064 98.328H71.9704L72.9464 96.552L75.5544 92.648H77.3944V101H75.3944V97.272L75.5704 95.304H75.5064L74.5304 97.096L71.9224 101H70.0824V92.648ZM73.7464 91.656C73.0744 91.656 72.5358 91.5173 72.1304 91.24C71.7251 90.952 71.4051 90.5467 71.1704 90.024L70.8344 89.272L72.4664 88.632L72.9944 90.168C73.0798 90.2 73.1918 90.2267 73.3304 90.248C73.4691 90.2587 73.6078 90.264 73.7464 90.264C73.8851 90.264 74.0238 90.2587 74.1624 90.248C74.3011 90.2267 74.4131 90.2 74.4984 90.168L75.0264 88.632L76.6584 89.272L76.3224 90.024C76.0878 90.5467 75.7678 90.952 75.3624 91.24C74.9571 91.5173 74.4184 91.656 73.7464 91.656Z" fill="black"/>
<path d="M22 38.093V6.46512C30.0138 3.6535 35.2017 2.65404 45.814 2C58.5802 3.16118 63.9995 4.1174 70 6.46512V38.093C65.0188 50.8122 58.2577 53.87 45.814 58.9302C32.3425 53.7215 25.9239 49.2896 22 38.093Z" stroke="black" stroke-width="4" stroke-linejoin="round"/>
<path d="M38.624 16.664H42.848V25.816H46.4L50.048 19.224C50.5387 18.328 51.072 17.6773 51.648 17.272C52.224 16.8667 52.9493 16.664 53.824 16.664H55.648V20.408H53.664L50.88 25.432C50.5387 26.0293 50.1973 26.4773 49.856 26.776C49.536 27.0533 49.1413 27.2667 48.672 27.416V27.608C49.2053 27.7147 49.6533 27.928 50.016 28.248C50.4 28.5467 50.7733 29.016 51.136 29.656L54.208 35.256H56.192V39H53.824C53.0133 39 52.3413 38.8187 51.808 38.456C51.2747 38.072 50.7413 37.4 50.208 36.44L46.4 29.496H42.848V39H38.624V16.664Z" fill="black"/>
</svg>
